<svg xmlns="http://www.w3.org/2000/svg" viewBox="0 0 461 461">
  <defs>
    <style>
      .cls-1 {
        fill: #fff;
        fill-rule: evenodd;
      }
    </style>
  </defs>
  <path id="簡" class="cls-1" d="M172.6,180.4v8H121.8v-8h50.8Zm-50.8,46.4v-8.4h50.8v8.4H121.8ZM224.6,148H69.4V421.6h52.4V258.8H224.6V148Zm120.8,40.4H294.2v-8h51.2v8Zm-51.2,38.4v-8.4h51.2v8.4H294.2Zm-88.4,128V343.2h50.8v11.6H205.8ZM256.6,302v11.2H205.8V302h50.8Zm159.2-233.2H312.2c2.8-5.6,5.6-11.6,8-17.2L265,38.005c-8.4,22-22.8,43.6-40,61.2V68.8H145.4c2.8-5.2,5.2-10.8,7.6-16l-54-14.8C86.6,67.2,63.8,97.6,39,116.8c13.2,6.8,36,22,47.2,31.2a294.572,294.572,0,0,0,30.4-34.4c7.2,11.6,14,25.2,16.8,34.4l50.4-14c-2.4-6.4-6.8-14-11.6-22H211l-6,4.8c14,5.6,38.8,18.4,51.2,26.8A224.983,224.983,0,0,0,284.6,112h15.6a230.575,230.575,0,0,1,21.6,36H242.2V258.8H345.4V365.2c0,5.6-2,7.2-8,7.2-4.4,0-17.2.4-30,0V271.2H153.8v128h52V385.6h96c4.4,12,8.4,26,9.6,36,29.6,0.4,51.2-.4,67.2-8.8,16-8,20.8-21.6,20.8-46.8V148h-76l50.4-13.2c-3.2-6.8-8.4-14.8-14-22.8h56V68.8Z"/>
</svg>
