<svg xmlns="http://www.w3.org/2000/svg" viewBox="0 0 461 461">
  <defs>
    <style>
      .cls-1 {
        fill: #fff;
        fill-rule: evenodd;
      }
    </style>
  </defs>
  <path class="cls-1" d="M278.6,370.8c28,13.2,68.4,32.8,87.2,44.4l45.6-30c-22.4-12-63.6-30-90.4-41.2Zm24.8-264.4h38.8a132.53,132.53,0,0,1-18,31.2A150.382,150.382,0,0,1,303,106.8Zm-75.6,36.4,1.2-16a199.684,199.684,0,0,1,17.6,16H227.8ZM165.4,188l9.2-13.2c-4-2-9.2-4-15.2-6.4H185a191.6,191.6,0,0,1-2.8,19.6H165.4Zm65.2,28c-5.2,2.8-10.8,5.2-16.4,7.6,0.8-2.4,2-4.8,2.8-7.6h13.6ZM111,168.4h14.4l-5.6,7.2c9.2,3.6,20.4,8.4,29.6,12.4H108.6Zm20.4-40.8-6.4,8.8c8.4,2.8,18,6.4,26.4,10h-38l2-18.8h16Zm36.8,18.8,8.4-13.2c-3.6-1.6-8.4-3.6-13.6-5.6h26c-0.8,6.8-1.2,12.8-1.6,18.8H168.2ZM203,373.6c0,4.4-2,5.6-7.6,5.6-3.6.4-16.4,0.4-28.4,0,6.8-4.4,13.6-8.8,19.2-13.2l-46.8-18.8c15.6-1.2,36-2.8,63.6-4.4v30.8Zm213.6-267.2V66.8H320.2c2-5.2,3.6-10.8,5.2-16.4l-48-9.6c-8,32.8-24.8,62.4-48,82l0.4-7.2c0.4-4.4.8-14.4,0.8-14.4H103c2.8-3.2,5.6-6.4,8-9.6H238.2V60H131.4c1.6-3.2,2.8-6.4,4.4-9.6L91,40.005C80.6,64.4,60.6,87.2,36.2,102.4c10.8,5.2,30,16.4,39.6,23.6l-2,16.8H43.4V172H70.6c-2,16.4-4.4,31.6-6.4,44H175a16.934,16.934,0,0,1-2,2.8c-3.2,3.6-6,4.4-11.2,4.4s-15.6-.4-27.6-1.6c4,6.8,7.2,18.4,7.6,25.2l6.4,0.4c-8,2.4-14.4,4-18.8,5.2-14.8,4-26,6.4-37.2,7.6a312.272,312.272,0,0,1,11.6,39.2c6.4-2,14.8-3.6,44.8-4.8-8.8,2.8-15.6,5.2-20.4,6.4C105,308.4,90.2,312.4,75,314c4,12,9.6,33.2,11.2,41.6,8-3.2,17.6-4.8,44.4-7.6-20.8,12-54.4,22.8-85.6,29.2,12,9.2,31.2,28.4,40.8,38.8A406.075,406.075,0,0,0,157,384.8c6.4,12,12.8,27.6,15.6,39.6,26,0,46.8-.4,64-7.2,17.6-6.8,22.4-18.4,22.4-41.6V339.2l78.8-5.2c10,10,18.8,19.6,24.8,26.8l40.8-23.2c-17.6-18.8-51.6-48.8-74.4-69.2l-38.4,20,13.6,12.8L227,304.8a853.206,853.206,0,0,0,100.8-40L299,231.6c-16.8,9.6-36.4,18.8-56.4,27.2l-21.6.4c15.2-4.8,29.6-10,43.6-15.6l-28.4-30.4V188H222.6a158.458,158.458,0,0,0,2-16H249V145.2c5.2,5.6,10,10.8,12.8,14.4A131.893,131.893,0,0,0,277,144.8,234.843,234.843,0,0,0,292.6,168c-15.6,10.8-33.6,19.2-54,26,8.8,8.8,23.2,28,28.4,38,21.2-8.4,40.4-18.8,57.2-31.6,19.6,16.4,43.2,29.2,70,38,6.8-12.8,20.8-32,31.6-42-25.6-6.4-48-16-67.6-29.2a193.336,193.336,0,0,0,33.2-60.8h25.2Z"/>
</svg>
